Patient4_TMGait_0pt6_01_right_17_GRF.mot
version=1
nRows=78
nColumns=19
inDegrees=no
endheader
time	F1x	F1y	F1z	M1x	M1y	M1z	F2x	F2y	F2z	M2x	M2y	M2z	EC1x	EC1y	EC1z	EC2x	EC2y	EC2z
20.13	6.1557	721.7824	58.0631	-258.1224	-41.7775	616.3369	-3.8357	1.6034	12.569	-3.2081	-13.0511	2.387	-0.0592	0.0182	-0.0073	-0.0462	0.0165	0.9585
20.1418	6.9052	718.1894	58.0465	-256.8983	-41.8136	608.592	-2.6632	2.1587	8.5986	-1.7765	-8.9011	2.6476	-0.0592	0.0182	-0.0073	-0.0462	0.0165	0.9585
20.1536	8.233	715.549	57.7112	-256.0335	-41.2707	601.2866	-1.685	2.6836	5.1584	-0.52339	-5.2927	2.9473	-0.0592	0.0182	-0.0073	-0.0462	0.0165	0.9585
20.1654	10.1234	714.3465	57.0833	-255.7139	-40.1639	595.0239	-0.94702	3.1376	2.4929	0.46451	-2.4884	3.2449	-0.0592	0.0182	-0.0073	-0.0462	0.0165	0.9585
20.1771	12.4725	714.7956	56.2356	-256.0165	-38.593	590.0998	-0.4532	3.5045	0.61911	1.1763	-0.50619	3.5259	-0.0592	0.0182	-0.0073	-0.0462	0.0165	0.9585
20.1889	15.1762	716.8269	55.3052	-256.9087	-36.7259	586.5122	-0.17475	3.7775	-0.56893	1.6409	0.76801	3.7782	-0.0592	0.0182	-0.0073	-0.0462	0.0165	0.9585
20.2007	18.1218	720.2246	54.4225	-258.3014	-34.7273	584.1063	-0.070987	3.9388	-1.2188	1.8973	1.4903	3.9646	-0.0592	0.0182	-0.0073	-0.0462	0.0165	0.9585
20.2125	21.2236	724.7068	53.7253	-260.0846	-32.7597	582.6356	-0.10409	3.9528	-1.4932	1.9788	1.8312	4.0273	-0.0592	0.0182	-0.0073	-0.0462	0.0165	0.9585
20.2243	24.4249	730.0214	53.2851	-262.1635	-30.9151	581.8847	-0.23442	3.7584	-1.5298	1.9039	1.9346	3.8893	-0.0592	0.0182	-0.0073	-0.0462	0.0165	0.9585
20.2361	27.7099	735.9477	53.1359	-264.4573	-29.241	581.6533	-0.42294	3.2723	-1.446	1.6723	1.9176	3.4603	-0.0592	0.0182	-0.0073	-0.0462	0.0165	0.9585
20.2479	31.0387	742.237	53.2661	-266.8747	-27.7509	581.7472	-0.62619	2.3972	-1.3103	1.2686	1.8411	2.6337	-0.0592	0.0182	-0.0073	-0.0462	0.0165	0.9585
20.2596	34.3793	748.5525	53.6472	-269.2881	-26.4464	581.9107	-0.8027	1.0384	-1.1745	0.66801	1.744	1.31	-0.0592	0.0182	-0.0073	-0.0462	0.0165	0.9585
20.2714	37.6447	754.4837	54.2456	-271.5364	-25.3402	581.8664	-0.88927	-0.85986	-1.0576	-0.14715	1.6248	-0.57112	-0.0592	0.0182	-0.0073	-0.0462	0.0165	0.9585
20.2832	40.7297	759.5467	54.9993	-273.4316	-24.4213	581.2979	-0.81594	-3.2848	-0.96308	-1.1683	1.4585	-2.9934	-0.0592	0.0182	-0.0073	-0.0462	0.0165	0.9585
20.295	43.4835	763.2219	55.8383	-274.764	-23.6902	579.9138	-0.48718	-6.0581	-0.88284	-2.3223	1.2014	-5.7787	-0.0592	0.0182	-0.0073	-0.0462	0.0165	0.9585
20.3068	45.7503	764.943	56.6842	-275.304	-23.1464	577.3902	0.21259	-8.7685	-0.78919	-3.4404	0.78251	-8.5192	-0.0592	0.0182	-0.0073	-0.0462	0.0165	0.9585
20.3186	47.3948	764.2665	57.4929	-274.8603	-22.8103	573.5122	1.4167	-10.6644	-0.64574	-4.2147	0.11346	-10.4653	-0.0592	0.0182	-0.0073	-0.0462	0.0165	0.9585
20.3304	48.376	761.0032	58.2253	-273.3368	-22.6726	568.2212	3.2467	-10.5582	-0.41345	-4.158	-0.88953	-10.445	-0.0592	0.0182	-0.0073	-0.0462	0.0165	0.9585
20.3421	48.7711	755.2676	58.8607	-270.756	-22.6979	561.6484	5.76	-6.7702	-0.062799	-2.5781	-2.2742	-6.8004	-0.0592	0.0182	-0.0073	-0.0462	0.0165	0.9585
20.3539	48.8093	747.3586	59.3645	-267.2273	-22.7908	554.0065	8.8873	2.8696	0.4192	1.417	-4.0156	2.6255	-0.0592	0.0182	-0.0073	-0.0462	0.0165	0.9585
20.3657	48.7988	737.6055	59.6486	-262.8933	-22.7869	545.4814	12.3325	20.8484	1.0192	8.8511	-5.967	20.2989	-0.0592	0.0182	-0.0073	-0.0462	0.0165	0.9585
20.3775	49.0911	726.1431	59.5701	-257.8516	-22.47	536.0676	15.4689	49.6166	1.6737	20.7308	-7.7938	48.6578	-0.0592	0.0182	-0.0073	-0.0462	0.0165	0.9585
20.3893	49.9667	712.6976	58.9208	-252.0754	-21.5988	525.4563	17.2396	90.9381	2.2515	37.778	-8.9222	89.4663	-0.0592	0.0182	-0.0073	-0.0462	0.0165	0.9585
20.4011	51.5739	696.4233	57.4605	-245.3511	-19.9536	512.911	16.2247	144.9942	2.5982	60.0557	-8.6104	142.936	-0.0592	0.0182	-0.0073	-0.0462	0.0165	0.9585
20.4129	53.8546	675.9445	54.9412	-237.2808	-17.3767	497.3347	10.8905	209.1184	2.4891	86.4526	-6.0238	206.4495	-0.0592	0.0182	-0.0073	-0.0462	0.0165	0.9585
20.4246	56.4972	649.5339	51.1991	-227.3288	-13.8589	477.4123	0.92948	277.2789	1.4286	114.4487	-0.5837	274.0874	-0.0592	0.0182	-0.0073	-0.0462	0.0165	0.9585
20.4364	58.9296	615.5583	46.2127	-214.9622	-9.5824	451.9566	-11.3852	341.6802	-1.3079	140.7835	7.4754	338.049	-0.0592	0.0182	-0.0073	-0.0462	0.0165	0.9585
20.4482	60.4024	572.9918	40.1825	-199.822	-4.9507	420.2673	-23.469	396.108	-5.7012	162.9006	17.0053	391.9354	-0.0592	0.0182	-0.0073	-0.0462	0.0165	0.9585
20.46	60.2409	521.9017	33.523	-181.888	-0.48063	382.4693	-33.5639	438.6957	-11.0938	180.0434	26.6201	433.6548	-0.0592	0.0182	-0.0073	-0.0462	0.0165	0.9585
20.4718	57.9825	463.5251	26.766	-161.5284	3.3084	339.5042	-40.8975	471.0521	-16.7648	192.9115	35.2696	464.7415	-0.0592	0.0182	-0.0073	-0.0462	0.0165	0.9585
20.4836	53.4083	400.2366	20.3819	-139.5064	6.0246	293.1362	-45.5508	496.6006	-21.9957	202.9657	42.2929	488.6038	-0.0592	0.0182	-0.0073	-0.0462	0.0165	0.9585
20.4954	46.5976	335.2143	14.715	-116.8827	7.4568	245.679	-48.1558	519.2574	-26.526	211.8393	47.7123	509.1927	-0.0592	0.0182	-0.0073	-0.0462	0.0165	0.9585
20.5071	37.919	272.0282	9.9519	-94.8754	7.5993	199.6984	-49.369	542.4123	-30.2212	220.9458	51.6966	529.8285	-0.0592	0.0182	-0.0073	-0.0462	0.0165	0.9585
20.5189	28.1043	214.0345	6.1544	-74.6504	6.6566	157.5756	-49.7623	568.5201	-33.3672	231.272	54.7667	552.9218	-0.0592	0.0182	-0.0073	-0.0462	0.0165	0.9585
20.5307	18.0958	163.7017	3.3297	-57.0778	4.9475	121.0307	-49.6474	598.5203	-36.1539	243.1847	57.2441	579.3514	-0.0592	0.0182	-0.0073	-0.0462	0.0165	0.9585
20.5425	8.7945	122.1949	1.425	-42.5724	2.832	90.8516	-49.2814	631.6468	-38.9239	256.3499	59.5517	608.4116	-0.0592	0.0182	-0.0073	-0.0462	0.0165	0.9585
20.5543	0.85558	89.3504	0.32387	-31.0855	0.63335	66.8887	-48.7884	665.9362	-41.8075	269.9593	61.8606	638.226	-0.0592	0.0182	-0.0073	-0.0462	0.0165	0.9585
20.5661	-5.3526	64.1127	-0.14864	-22.2534	-1.3808	48.3871	-48.25	699.055	-44.9068	283.0554	64.2955	666.6251	-0.0592	0.0182	-0.0073	-0.0462	0.0165	0.9585
20.5779	-9.6214	45.016	-0.21538	-15.5705	-2.969	34.2955	-47.6486	728.8064	-48.0108	294.7652	66.6512	691.5605	-0.0592	0.0182	-0.0073	-0.0462	0.0165	0.9585
20.5896	-11.8976	30.6204	-0.10907	-10.5379	-3.9361	23.6136	-46.9353	753.4781	-50.8951	304.4085	68.6954	711.4942	-0.0592	0.0182	-0.0073	-0.0462	0.0165	0.9585
20.6014	-12.1973	19.7376	0.022236	-6.7433	-4.1959	15.4881	-46.024	771.8335	-53.3323	311.5072	70.1856	725.3298	-0.0592	0.0182	-0.0073	-0.0462	0.0165	0.9585
20.6132	-10.8016	11.5675	0.081831	-3.9075	-3.7879	9.3589	-44.8793	783.2414	-55.1618	315.8184	70.9677	732.5725	-0.0592	0.0182	-0.0073	-0.0462	0.0165	0.9585
20.625	-8.4411	5.7635	0.074399	-1.9039	-2.9808	4.9642	-43.4619	787.686	-56.3267	317.3422	70.9962	733.2892	-0.0592	0.0182	-0.0073	-0.0462	0.0165	0.9585
20.6368	-5.9198	2.0729	0.011501	-0.63523	-2.0599	2.1646	-41.824	785.7522	-56.8012	316.3204	70.2839	728.1	-0.0592	0.0182	-0.0073	-0.0462	0.0165	0.9585
20.6486	-3.6462	-0.001732	-0.041093	0.066417	-1.2352	0.57624	-40.0008	778.6481	-56.6791	313.2429	68.9544	718.1679	-0.0592	0.0182	-0.0073	-0.0462	0.0165	0.9585
20.6604	-1.8473	-0.91127	-0.10279	0.35738	-0.56787	-0.10941	-38.0373	768.1328	-56.0403	308.8202	67.1065	705.1205	-0.0592	0.0182	-0.0073	-0.0462	0.0165	0.9585
20.6721	-0.53348	-1.0822	-0.12545	0.3873	-0.10953	-0.26372	-35.9409	756.1762	-55.0687	303.8482	64.9159	690.7185	-0.0592	0.0182	-0.0073	-0.0462	0.0165	0.9585
20.6839	0.3052	-0.82121	-0.14031	0.26855	0.17893	-0.097039	-33.708	744.6849	-53.8863	299.0943	62.4942	676.6477	-0.0592	0.0182	-0.0073	-0.0462	0.0165	0.9585
20.6957	0.80028	-0.35675	-0.12952	0.083141	0.3253	0.20329	-31.3544	735.2217	-52.6352	295.1919	59.9825	664.2521	-0.0592	0.0182	-0.0073	-0.0462	0.0165	0.9585
20.7075	1.0126	0.16907	-0.11267	-0.1209	0.37586	0.55757	-28.9192	728.9585	-51.3818	292.6109	57.4653	654.5176	-0.0592	0.0182	-0.0073	-0.0462	0.0165	0.9585
20.7193	1.0626	0.66098	-0.092902	-0.31431	0.37647	0.86854	-26.4435	726.5159	-50.2153	291.5977	55.0452	647.9333	-0.0592	0.0182	-0.0073	-0.0462	0.0165	0.9585
20.7311	1.007	1.0975	-0.072538	-0.48797	0.34895	1.1486	-23.9959	727.9658	-49.1972	292.1751	52.7987	644.5428	-0.0592	0.0182	-0.0073	-0.0462	0.0165	0.9585
20.7429	0.90734	1.4303	-0.059256	-0.62841	0.31632	1.3454	-21.6301	732.9076	-48.3737	294.1729	50.7846	643.997	-0.0592	0.0182	-0.0073	-0.0462	0.0165	0.9585
20.7546	0.77517	1.6761	-0.043095	-0.73439	0.26928	1.4994	-19.4098	740.5773	-47.7742	297.2736	49.0451	645.6717	-0.0592	0.0182	-0.0073	-0.0462	0.0165	0.9585
20.7664	0.64309	1.8116	-0.035364	-0.79703	0.22385	1.5811	-17.3707	749.9378	-47.3982	301.0513	47.5832	648.7061	-0.0592	0.0182	-0.0073	-0.0462	0.0165	0.9585
20.7782	0.48688	1.8234	-0.026467	-0.80683	0.16196	1.5807	-15.548	759.8048	-47.2492	305.0187	46.4033	652.1481	-0.0592	0.0182	-0.0073	-0.0462	0.0165	0.9585
20.79	0.32195	1.6584	-0.02837	-0.74398	0.099844	1.4331	-13.9457	768.923	-47.2882	308.6672	45.4643	654.9956	-0.0592	0.0182	-0.0073	-0.0462	0.0165	0.9585
20.8018	0.134	1.2418	-0.032054	-0.57807	0.032083	1.0727	-12.5593	776.1369	-47.4668	311.5278	44.7193	656.3409	-0.0592	0.0182	-0.0073	-0.0462	0.0165	0.9585
20.8136	-0.077448	0.48638	-0.044477	-0.27692	-0.031731	0.39085	-11.3138	780.5127	-47.6984	313.2257	44.0721	655.438	-0.0592	0.0182	-0.0073	-0.0462	0.0165	0.9585
20.8254	-0.29367	-0.68938	-0.057912	0.19219	-0.096113	-0.69716	-10.1219	781.4212	-47.8964	313.5114	43.4154	651.7938	-0.0592	0.0182	-0.0073	-0.0462	0.0165	0.9585
20.8371	-0.48378	-2.3376	-0.070623	0.84798	-0.15165	-2.255	-8.821	778.5488	-48.0026	312.263	42.6449	645.1513	-0.0592	0.0182	-0.0073	-0.0462	0.0165	0.9585
20.8489	-0.59828	-4.4278	-0.06788	1.6767	-0.19238	-4.2551	-7.2925	771.9187	-48.0086	309.4881	41.7043	635.54	-0.0592	0.0182	-0.0073	-0.0462	0.0165	0.9585
20.8607	-0.53995	-6.7932	-0.047529	2.6119	-0.18398	-6.5363	-5.4004	761.8906	-47.9423	305.3275	40.5669	623.239	-0.0592	0.0182	-0.0073	-0.0462	0.0165	0.9585
20.8725	-0.18432	-9.046	-0.0085274	3.5034	-0.079912	-8.7356	-3.0684	749.2019	-47.8572	300.067	39.2452	608.8506	-0.0592	0.0182	-0.0073	-0.0462	0.0165	0.9585
20.8843	0.61885	-10.508	0.053083	4.0858	0.17547	-10.1966	-0.23274	734.852	-47.8004	294.1039	37.7521	593.1578	-0.0592	0.0182	-0.0073	-0.0462	0.0165	0.9585
20.8961	2.0635	-10.103	0.13265	3.9382	0.65798	-9.8784	3.1246	720.0821	-47.8003	287.9264	36.0997	577.154	-0.0592	0.0182	-0.0073	-0.0462	0.0165	0.9585
20.9079	4.3028	-6.3324	0.23238	2.4736	1.425	-6.3196	6.9891	706.1448	-47.8454	282.0362	34.2809	561.8277	-0.0592	0.0182	-0.0073	-0.0462	0.0165	0.9585
20.9196	7.4539	2.7198	0.33415	-1.0561	2.5331	2.3413	11.2622	694.1486	-47.8883	276.8745	32.2915	548.095	-0.0592	0.0182	-0.0073	-0.0462	0.0165	0.9585
20.9314	11.4717	19.2313	0.41884	-7.5011	3.9765	18.2574	15.8203	684.7881	-47.8482	272.718	30.1161	536.5517	-0.0592	0.0182	-0.0073	-0.0462	0.0165	0.9585
20.9432	16.0537	45.2845	0.44662	-17.677	5.665	43.479	20.4796	678.1628	-47.6131	269.6015	27.7344	527.3593	-0.0592	0.0182	-0.0073	-0.0462	0.0165	0.9585
20.955	20.4809	82.2799	0.35415	-32.1287	7.3682	79.4284	25.0649	673.6586	-47.0831	267.2769	25.147	520.1112	-0.0592	0.0182	-0.0073	-0.0462	0.0165	0.9585
20.9668	23.4819	129.924	0.060874	-50.7417	8.661	125.8839	29.3748	670.0103	-46.1346	265.2399	22.3475	513.9152	-0.0592	0.0182	-0.0073	-0.0462	0.0165	0.9585
20.9786	23.2145	185.0852	-0.497	-72.2932	8.8958	179.8831	33.2493	665.4406	-44.6672	262.7969	19.3469	507.4556	-0.0592	0.0182	-0.0073	-0.0462	0.0165	0.9585
20.9904	18.3445	241.237	-1.1545	-94.2306	7.4135	235.1653	36.5102	658.0478	-42.5863	259.2175	16.1622	499.3118	-0.0592	0.0182	-0.0073	-0.0462	0.0165	0.9585
21.0021	10.0278	290.4955	-0.93201	-113.4344	3.7021	284.0635	39.0788	646.2479	-39.8897	253.9076	12.8528	488.2556	-0.0592	0.0182	-0.0073	-0.0462	0.0165	0.9585
21.0139	0.28843	328.418	0.99733	-128.1204	-2.2212	322.0817	40.9514	629.1191	-36.685	246.5277	9.5182	473.5305	-0.0592	0.0182	-0.0073	-0.0462	0.0165	0.9585
21.0257	-9.3767	355.6358	3.6041	-138.5337	-8.7521	349.6674	42.2121	606.3843	-33.2002	236.9752	6.2989	454.8724	-0.0592	0.0182	-0.0073	-0.0462	0.0165	0.9585
21.0375	-17.9054	374.7987	6.7339	-145.7241	-15.2979	369.3599	42.9833	578.0703	-29.7069	225.2747	3.3419	432.2517	-0.0592	0.0182	-0.0073	-0.0462	0.0165	0.9585
